<mxfile host="app.diagrams.net" agent="Mozilla/5.0 (X11; Linux x86_64) AppleWebKit/537.36 (KHTML, like Gecko) Chrome/129.0.0.0 Safari/537.36" version="24.8.1">
  <diagram name="Page-1" id="3g2OQTjfMKejFlv3us2C">
    <mxGraphModel dx="3695" dy="2741" grid="1" gridSize="10" guides="1" tooltips="1" connect="1" arrows="1" fold="1" page="1" pageScale="1" pageWidth="827" pageHeight="1169" math="0" shadow="0">
      <root>
        <mxCell id="0" />
        <mxCell id="1" parent="0" />
        <mxCell id="DJQ2heJ6GVxLAJbuLJFr-8" value="&lt;b&gt;&lt;font style=&quot;font-size: 16px;&quot;&gt;STUDENT&lt;/font&gt;&lt;/b&gt;" style="shape=umlActor;verticalLabelPosition=bottom;verticalAlign=top;html=1;outlineConnect=0;" vertex="1" parent="1">
          <mxGeometry x="-660" y="70" width="190" height="290" as="geometry" />
        </mxCell>
        <mxCell id="DJQ2heJ6GVxLAJbuLJFr-13" value="&lt;span style=&quot;font-size: 16px;&quot;&gt;&lt;b&gt;BANKS /&amp;nbsp;&lt;/b&gt;&lt;/span&gt;&lt;div&gt;&lt;span style=&quot;font-size: 16px;&quot;&gt;&lt;b&gt;PAYMENT GATEWAY&lt;/b&gt;&lt;/span&gt;&lt;/div&gt;" style="shape=umlActor;verticalLabelPosition=bottom;verticalAlign=top;html=1;outlineConnect=0;" vertex="1" parent="1">
          <mxGeometry x="1130" y="60" width="140" height="240" as="geometry" />
        </mxCell>
        <mxCell id="DJQ2heJ6GVxLAJbuLJFr-14" value="&lt;b&gt;&lt;font style=&quot;font-size: 16px;&quot;&gt;ADMINISTRATIVE STAFF /&lt;/font&gt;&lt;/b&gt;&lt;div&gt;&lt;b&gt;&lt;font style=&quot;font-size: 16px;&quot;&gt;BURSARY&lt;/font&gt;&lt;/b&gt;&lt;/div&gt;" style="shape=umlActor;verticalLabelPosition=bottom;verticalAlign=top;html=1;outlineConnect=0;" vertex="1" parent="1">
          <mxGeometry x="-660" y="700" width="190" height="260" as="geometry" />
        </mxCell>
        <mxCell id="DJQ2heJ6GVxLAJbuLJFr-16" value="&lt;span style=&quot;font-size: 16px;&quot;&gt;&lt;b&gt;DEPARTMENTS /&lt;/b&gt;&lt;/span&gt;&lt;div&gt;&lt;span style=&quot;font-size: 16px;&quot;&gt;&lt;b&gt;UNITS&lt;/b&gt;&lt;/span&gt;&lt;/div&gt;" style="shape=umlActor;verticalLabelPosition=bottom;verticalAlign=top;html=1;outlineConnect=0;" vertex="1" parent="1">
          <mxGeometry x="1110" y="710" width="200" height="270" as="geometry" />
        </mxCell>
        <mxCell id="DJQ2heJ6GVxLAJbuLJFr-18" value="" style="swimlane;startSize=0;" vertex="1" parent="1">
          <mxGeometry x="30" y="50" width="640" height="1070" as="geometry" />
        </mxCell>
        <mxCell id="DJQ2heJ6GVxLAJbuLJFr-19" value="&lt;font style=&quot;font-size: 16px;&quot;&gt;&lt;b&gt;DYNAMIC FEE MANAGEMENT SYSTEM&lt;/b&gt;&lt;/font&gt;" style="text;html=1;align=center;verticalAlign=middle;resizable=0;points=[];autosize=1;strokeColor=none;fillColor=none;" vertex="1" parent="DJQ2heJ6GVxLAJbuLJFr-18">
          <mxGeometry x="180" y="30" width="320" height="30" as="geometry" />
        </mxCell>
        <mxCell id="DJQ2heJ6GVxLAJbuLJFr-30" style="edgeStyle=orthogonalEdgeStyle;rounded=0;orthogonalLoop=1;jettySize=auto;html=1;" edge="1" parent="DJQ2heJ6GVxLAJbuLJFr-18" source="DJQ2heJ6GVxLAJbuLJFr-21" target="DJQ2heJ6GVxLAJbuLJFr-22">
          <mxGeometry relative="1" as="geometry" />
        </mxCell>
        <mxCell id="DJQ2heJ6GVxLAJbuLJFr-21" value="&lt;span style=&quot;font-size: 16px; font-weight: 700;&quot;&gt;MAKE PAYMENT&lt;/span&gt;" style="ellipse;whiteSpace=wrap;html=1;" vertex="1" parent="DJQ2heJ6GVxLAJbuLJFr-18">
          <mxGeometry x="234" y="100" width="160" height="108.5" as="geometry" />
        </mxCell>
        <mxCell id="DJQ2heJ6GVxLAJbuLJFr-22" value="&lt;span style=&quot;font-size: 16px; font-weight: 700;&quot;&gt;GENERATE RECEIPT&lt;/span&gt;" style="ellipse;whiteSpace=wrap;html=1;" vertex="1" parent="DJQ2heJ6GVxLAJbuLJFr-18">
          <mxGeometry x="234" y="260" width="160" height="108.5" as="geometry" />
        </mxCell>
        <mxCell id="DJQ2heJ6GVxLAJbuLJFr-23" value="&lt;span style=&quot;font-size: 16px; font-weight: 700;&quot;&gt;VALIDATE&amp;nbsp;&lt;/span&gt;&lt;div&gt;&lt;span style=&quot;font-size: 16px; font-weight: 700;&quot;&gt;PAYMENT&lt;/span&gt;&lt;/div&gt;" style="ellipse;whiteSpace=wrap;html=1;" vertex="1" parent="DJQ2heJ6GVxLAJbuLJFr-18">
          <mxGeometry x="234" y="430" width="160" height="108.5" as="geometry" />
        </mxCell>
        <mxCell id="DJQ2heJ6GVxLAJbuLJFr-24" value="&lt;span style=&quot;font-size: 16px;&quot;&gt;&lt;b&gt;ACCESS FEE RECORDS&lt;/b&gt;&lt;/span&gt;" style="ellipse;whiteSpace=wrap;html=1;" vertex="1" parent="DJQ2heJ6GVxLAJbuLJFr-18">
          <mxGeometry x="234" y="600" width="160" height="108.5" as="geometry" />
        </mxCell>
        <mxCell id="DJQ2heJ6GVxLAJbuLJFr-25" value="&lt;span style=&quot;font-size: 16px;&quot;&gt;&lt;b&gt;ALLOCATES FEES&lt;/b&gt;&lt;/span&gt;&lt;div&gt;&lt;span style=&quot;font-size: 16px;&quot;&gt;&lt;b&gt;TO DEPARTMENTS / UNITS&lt;/b&gt;&lt;/span&gt;&lt;/div&gt;" style="ellipse;whiteSpace=wrap;html=1;" vertex="1" parent="DJQ2heJ6GVxLAJbuLJFr-18">
          <mxGeometry x="224" y="760" width="180" height="128.5" as="geometry" />
        </mxCell>
        <mxCell id="DJQ2heJ6GVxLAJbuLJFr-26" value="&lt;span style=&quot;font-size: 16px;&quot;&gt;&lt;b&gt;GENERATE REPORTS&lt;/b&gt;&lt;/span&gt;" style="ellipse;whiteSpace=wrap;html=1;" vertex="1" parent="DJQ2heJ6GVxLAJbuLJFr-18">
          <mxGeometry x="234" y="940.5" width="160" height="108.5" as="geometry" />
        </mxCell>
        <mxCell id="DJQ2heJ6GVxLAJbuLJFr-32" value="" style="endArrow=classic;html=1;rounded=0;entryX=0;entryY=0.5;entryDx=0;entryDy=0;exitX=0.5;exitY=0.5;exitDx=0;exitDy=0;exitPerimeter=0;" edge="1" parent="1" source="DJQ2heJ6GVxLAJbuLJFr-8" target="DJQ2heJ6GVxLAJbuLJFr-21">
          <mxGeometry width="50" height="50" relative="1" as="geometry">
            <mxPoint x="20" y="290" as="sourcePoint" />
            <mxPoint x="70" y="240" as="targetPoint" />
          </mxGeometry>
        </mxCell>
        <mxCell id="DJQ2heJ6GVxLAJbuLJFr-33" value="" style="endArrow=classic;html=1;rounded=0;exitX=0;exitY=0.5;exitDx=0;exitDy=0;entryX=0.5;entryY=0.5;entryDx=0;entryDy=0;entryPerimeter=0;" edge="1" parent="1" source="DJQ2heJ6GVxLAJbuLJFr-22" target="DJQ2heJ6GVxLAJbuLJFr-8">
          <mxGeometry width="50" height="50" relative="1" as="geometry">
            <mxPoint x="-30" y="310" as="sourcePoint" />
            <mxPoint x="-260" y="80" as="targetPoint" />
          </mxGeometry>
        </mxCell>
        <mxCell id="DJQ2heJ6GVxLAJbuLJFr-35" value="" style="endArrow=classic;html=1;rounded=0;exitX=0.5;exitY=0.5;exitDx=0;exitDy=0;exitPerimeter=0;entryX=0;entryY=0.5;entryDx=0;entryDy=0;" edge="1" parent="1" source="DJQ2heJ6GVxLAJbuLJFr-8" target="DJQ2heJ6GVxLAJbuLJFr-24">
          <mxGeometry width="50" height="50" relative="1" as="geometry">
            <mxPoint x="-50" y="280" as="sourcePoint" />
            <mxPoint x="414" y="444" as="targetPoint" />
          </mxGeometry>
        </mxCell>
        <mxCell id="DJQ2heJ6GVxLAJbuLJFr-36" value="" style="endArrow=classic;html=1;rounded=0;entryX=0;entryY=0.5;entryDx=0;entryDy=0;exitX=0.5;exitY=0.5;exitDx=0;exitDy=0;exitPerimeter=0;" edge="1" parent="1" source="DJQ2heJ6GVxLAJbuLJFr-14" target="DJQ2heJ6GVxLAJbuLJFr-23">
          <mxGeometry width="50" height="50" relative="1" as="geometry">
            <mxPoint x="-30" y="510" as="sourcePoint" />
            <mxPoint x="434" y="514" as="targetPoint" />
          </mxGeometry>
        </mxCell>
        <mxCell id="DJQ2heJ6GVxLAJbuLJFr-37" value="" style="endArrow=classic;html=1;rounded=0;exitX=0.5;exitY=0.5;exitDx=0;exitDy=0;exitPerimeter=0;entryX=0;entryY=0.5;entryDx=0;entryDy=0;" edge="1" parent="1" source="DJQ2heJ6GVxLAJbuLJFr-14" target="DJQ2heJ6GVxLAJbuLJFr-24">
          <mxGeometry width="50" height="50" relative="1" as="geometry">
            <mxPoint x="-50" y="515" as="sourcePoint" />
            <mxPoint x="400" y="770" as="targetPoint" />
          </mxGeometry>
        </mxCell>
        <mxCell id="DJQ2heJ6GVxLAJbuLJFr-38" value="" style="endArrow=classic;html=1;rounded=0;exitX=0.5;exitY=0.5;exitDx=0;exitDy=0;exitPerimeter=0;entryX=0;entryY=0.5;entryDx=0;entryDy=0;" edge="1" parent="1" source="DJQ2heJ6GVxLAJbuLJFr-14" target="DJQ2heJ6GVxLAJbuLJFr-26">
          <mxGeometry width="50" height="50" relative="1" as="geometry">
            <mxPoint x="-555" y="840" as="sourcePoint" />
            <mxPoint x="274" y="714" as="targetPoint" />
          </mxGeometry>
        </mxCell>
        <mxCell id="DJQ2heJ6GVxLAJbuLJFr-39" value="" style="endArrow=classic;html=1;rounded=0;exitX=0.5;exitY=0.5;exitDx=0;exitDy=0;exitPerimeter=0;entryX=1;entryY=0.5;entryDx=0;entryDy=0;" edge="1" parent="1" source="DJQ2heJ6GVxLAJbuLJFr-16" target="DJQ2heJ6GVxLAJbuLJFr-24">
          <mxGeometry width="50" height="50" relative="1" as="geometry">
            <mxPoint x="441" y="700" as="sourcePoint" />
            <mxPoint x="1270" y="574" as="targetPoint" />
          </mxGeometry>
        </mxCell>
        <mxCell id="DJQ2heJ6GVxLAJbuLJFr-40" value="" style="endArrow=classic;html=1;rounded=0;entryX=1;entryY=0.5;entryDx=0;entryDy=0;exitX=0.5;exitY=0.5;exitDx=0;exitDy=0;exitPerimeter=0;" edge="1" parent="1" source="DJQ2heJ6GVxLAJbuLJFr-16" target="DJQ2heJ6GVxLAJbuLJFr-26">
          <mxGeometry width="50" height="50" relative="1" as="geometry">
            <mxPoint x="1090" y="930" as="sourcePoint" />
            <mxPoint x="434" y="714" as="targetPoint" />
          </mxGeometry>
        </mxCell>
        <mxCell id="DJQ2heJ6GVxLAJbuLJFr-41" value="" style="endArrow=classic;html=1;rounded=0;exitX=0.5;exitY=0.5;exitDx=0;exitDy=0;exitPerimeter=0;entryX=1;entryY=0.5;entryDx=0;entryDy=0;" edge="1" parent="1" source="DJQ2heJ6GVxLAJbuLJFr-13" target="DJQ2heJ6GVxLAJbuLJFr-21">
          <mxGeometry width="50" height="50" relative="1" as="geometry">
            <mxPoint x="1220" y="855" as="sourcePoint" />
            <mxPoint x="434" y="714" as="targetPoint" />
          </mxGeometry>
        </mxCell>
        <mxCell id="DJQ2heJ6GVxLAJbuLJFr-42" value="" style="endArrow=classic;html=1;rounded=0;exitX=0.5;exitY=0.5;exitDx=0;exitDy=0;exitPerimeter=0;entryX=1;entryY=0.5;entryDx=0;entryDy=0;" edge="1" parent="1" source="DJQ2heJ6GVxLAJbuLJFr-13" target="DJQ2heJ6GVxLAJbuLJFr-23">
          <mxGeometry width="50" height="50" relative="1" as="geometry">
            <mxPoint x="1210" y="190" as="sourcePoint" />
            <mxPoint x="434" y="214" as="targetPoint" />
          </mxGeometry>
        </mxCell>
        <mxCell id="DJQ2heJ6GVxLAJbuLJFr-43" value="" style="endArrow=classic;html=1;rounded=0;exitX=0.5;exitY=0.5;exitDx=0;exitDy=0;exitPerimeter=0;entryX=1;entryY=0.5;entryDx=0;entryDy=0;" edge="1" parent="1" source="DJQ2heJ6GVxLAJbuLJFr-13" target="DJQ2heJ6GVxLAJbuLJFr-22">
          <mxGeometry width="50" height="50" relative="1" as="geometry">
            <mxPoint x="1210" y="190" as="sourcePoint" />
            <mxPoint x="434" y="544" as="targetPoint" />
          </mxGeometry>
        </mxCell>
        <mxCell id="DJQ2heJ6GVxLAJbuLJFr-44" value="Initiates the payment process via the system" style="text;html=1;align=center;verticalAlign=middle;resizable=0;points=[];autosize=1;strokeColor=none;fillColor=none;rotation=0;fontSize=16;fontStyle=1" vertex="1" parent="1">
          <mxGeometry x="-400" y="165" width="340" height="30" as="geometry" />
        </mxCell>
        <mxCell id="DJQ2heJ6GVxLAJbuLJFr-45" value="Receives a receipt automatically after successful payment" style="text;html=1;align=center;verticalAlign=middle;resizable=0;points=[];autosize=1;strokeColor=none;fillColor=none;rotation=10;fontSize=16;fontStyle=1" vertex="1" parent="1">
          <mxGeometry x="-400" y="250" width="430" height="30" as="geometry" />
        </mxCell>
        <mxCell id="DJQ2heJ6GVxLAJbuLJFr-48" value="Views their payment history, fee details, and other records." style="text;html=1;align=center;verticalAlign=middle;resizable=0;points=[];autosize=1;strokeColor=none;fillColor=none;rotation=30;fontSize=16;fontStyle=1" vertex="1" parent="1">
          <mxGeometry x="-430" y="370" width="440" height="30" as="geometry" />
        </mxCell>
        <mxCell id="DJQ2heJ6GVxLAJbuLJFr-50" value="Verifies and confirms payment details" style="text;html=1;align=center;verticalAlign=middle;resizable=0;points=[];autosize=1;strokeColor=none;fillColor=none;rotation=-20;fontSize=16;fontStyle=1" vertex="1" parent="1">
          <mxGeometry x="-430" y="690" width="290" height="30" as="geometry" />
        </mxCell>
        <mxCell id="DJQ2heJ6GVxLAJbuLJFr-51" value="Oversees the distribution of fees to relevant units" style="text;html=1;align=center;verticalAlign=middle;resizable=0;points=[];autosize=1;strokeColor=none;fillColor=none;rotation=-10;fontSize=16;fontStyle=1" vertex="1" parent="1">
          <mxGeometry x="-380" y="740" width="370" height="30" as="geometry" />
        </mxCell>
        <mxCell id="DJQ2heJ6GVxLAJbuLJFr-52" value="Produces reports on payments, outstanding fees, and fee allocation." style="text;html=1;align=center;verticalAlign=middle;resizable=0;points=[];autosize=1;strokeColor=none;fillColor=none;rotation=15;fontSize=16;fontStyle=1" vertex="1" parent="1">
          <mxGeometry x="-470" y="880" width="510" height="30" as="geometry" />
        </mxCell>
        <mxCell id="DJQ2heJ6GVxLAJbuLJFr-53" value="Views records of allocated fees&amp;nbsp;" style="text;html=1;align=center;verticalAlign=middle;resizable=0;points=[];autosize=1;strokeColor=none;fillColor=none;rotation=10;fontSize=16;fontStyle=1" vertex="1" parent="1">
          <mxGeometry x="790" y="750" width="250" height="30" as="geometry" />
        </mxCell>
        <mxCell id="DJQ2heJ6GVxLAJbuLJFr-54" value="Creates internal reports on funds allocated" style="text;html=1;align=center;verticalAlign=middle;resizable=0;points=[];autosize=1;strokeColor=none;fillColor=none;rotation=-14;fontSize=16;fontStyle=1" vertex="1" parent="1">
          <mxGeometry x="720" y="890" width="330" height="30" as="geometry" />
        </mxCell>
        <mxCell id="DJQ2heJ6GVxLAJbuLJFr-55" value="Processes the payment initiated by the student." style="text;html=1;align=center;verticalAlign=middle;resizable=0;points=[];autosize=1;strokeColor=none;fillColor=none;rotation=0;fontSize=16;fontStyle=1" vertex="1" parent="1">
          <mxGeometry x="705" y="150" width="360" height="30" as="geometry" />
        </mxCell>
        <mxCell id="DJQ2heJ6GVxLAJbuLJFr-57" value="Confirms the payment has been processed" style="text;html=1;align=center;verticalAlign=middle;resizable=0;points=[];autosize=1;strokeColor=none;fillColor=none;rotation=-13;fontSize=16;fontStyle=1" vertex="1" parent="1">
          <mxGeometry x="685" y="260" width="330" height="30" as="geometry" />
        </mxCell>
        <mxCell id="DJQ2heJ6GVxLAJbuLJFr-58" value="Communicates successful transactions to the system" style="text;html=1;align=center;verticalAlign=middle;resizable=0;points=[];autosize=1;strokeColor=none;fillColor=none;rotation=-25;fontSize=16;fontStyle=1" vertex="1" parent="1">
          <mxGeometry x="685" y="340" width="400" height="30" as="geometry" />
        </mxCell>
        <mxCell id="DJQ2heJ6GVxLAJbuLJFr-60" value="&lt;font size=&quot;1&quot; style=&quot;&quot;&gt;&lt;b style=&quot;font-size: 44px;&quot;&gt;USE CASE DIAGRAM FOR DYNAMIC FEE MANAGEMENT SYSTEM&lt;/b&gt;&lt;/font&gt;" style="text;html=1;align=center;verticalAlign=middle;resizable=0;points=[];autosize=1;strokeColor=none;fillColor=none;" vertex="1" parent="1">
          <mxGeometry x="-365" y="-100" width="1420" height="70" as="geometry" />
        </mxCell>
      </root>
    </mxGraphModel>
  </diagram>
</mxfile>
